<?xml version="1.0" standalone="no"?><!DOCTYPE svg PUBLIC "-//W3C//DTD SVG 1.1//EN" "http://www.w3.org/Graphics/SVG/1.1/DTD/svg11.dtd"><svg class="icon" width="500px" height="411.24px" viewBox="0 0 1245 1024" version="1.1" xmlns="http://www.w3.org/2000/svg"><path d="M161.71294076 877.34014209l-1.08669375-0.60087744-1.39352518-0.71593946c-23.17854463-10.72630898-50.97234288-23.01234433-69.17766416-49.14413964-9.02595323-12.98919024-8.94924492-38.86529239-9.86973838-61.00828154V152.32345156a0.11506203 0.11506203 0 0 0-0.12784658-0.11506202A71.69623683 71.69623683 0 0 0 17.10592681 222.98413291v625.55222549a20.91566425 20.91566425 0 0 0 0.92049345 6.09827079 85.75933623 85.75933623 0 0 0 26.68153449 40.47615704 90.48965185 90.48965185 0 0 0 52.34029891 18.0007664c18.35873701 1.27846319 36.84531972 2.01997266 54.16850129 2.4930044 21.31198769 0.54973916 29.11061514-27.8577211 10.49618581-38.26441494z"  /><path d="M236.78432172 76.88131631v-0.0767083q-3.70754473-1.03555547-7.4406577-2.01997266l-0.43467716-0.11506113c-17.75785869-4.71753018-35.79697969-8.70633721-53.86167069-11.90249649a49.39983281 49.39983281 0 0 0-15.59725575-0.26847684 71.59396026 71.59396026 0 0 0-61.25118927 70.72460507v609.75041484a96.89475411 96.89475411 0 0 0 19.03632275 58.06781543l0.24290773 0.33240058a171.79993477 171.79993477 0 0 0 60.84208123 46.31873556c37.53569002 21.05629541 56.4058125 31.74425068 74.76454953 40.16932558 67.38781465 29.92883201 137.05129511 55.33190332 178.26896074 69.81689531a49.75780253 49.75780253 0 0 0 29.90326289 1.20175577 71.59396026 71.59396026 0 0 0 52.13574403-68.80690987V537.281617l0.33240059-216.06034307a51.13854317 51.13854317 0 0 0-4.62803818-21.32477227c-6.12384084-13.43665194-14.70233145-26.52811875-21.46540342-39.13377012C429.4871362 151.99105098 319.47534615 100.85250782 236.78432172 76.88131631zM936.62806499 801.79573028a130.40328428 130.40328428 0 0 0 15.45662461-26.60482704 46.81733556 46.81733556 0 0 0 3.83539131-18.61443019V133.63231396A71.51725195 71.51725195 0 0 0 884.90142897 62.17898486c-20.07187822 3.34957412-40.02869443 7.67078174-59.69146377 12.89969737l-0.43467804 0.11506202q-3.72032931 0.99720176-7.44065771 2.01997265v0.07670742c-82.7038081 24.03511523-192.70281445 75.12251924-250.86012187 183.81749237-8.74469092 16.30041065-20.4554171 33.36789903-26.10622619 50.99791204l0.35796975 225.58489715v352.85594502a71.50446739 71.50446739 0 0 0 71.01865194 71.4533291c38.89086153-13.51336026 115.44526055-40.91083417 189.28931573-73.66507118 18.35873701-8.4250749 37.2160749-19.11303017 74.76454951-40.1693256a171.79993477 171.79993477 0 0 0 60.82929667-46.36987294z"  /><path d="M974.08704762 152.63028213a0.11506203 0.11506203 0 0 0-0.1278457 0.11506201v613.54745245c-0.89492432 22.14298916-0.84378604 48.01909131-9.86973927 61.00828153-18.20532128 26.1829336-46.02468867 38.41783067-69.17766328 49.14413965l-1.39352518 0.71593945-1.08669464 0.60087833c-18.6144293 10.40669385-10.82858643 38.8141541 10.48340128 38.23884492 17.31039697-0.46024717 35.79697969-1.27846319 54.16850126-2.49300349a90.48965185 90.48965185 0 0 0 52.34029893-18.00076729 85.75933623 85.75933623 0 0 0 26.68153446-40.47615706 20.91566425 20.91566425 0 0 0 0.92049434-6.0982708V223.40602549a71.69623683 71.69623683 0 0 0-62.9387622-70.77574336z"  /></svg>