<?xml version="1.0" standalone="no"?><!DOCTYPE svg PUBLIC "-//W3C//DTD SVG 1.1//EN" "http://www.w3.org/Graphics/SVG/1.1/DTD/svg11.dtd"><svg class="icon" width="500px" height="500.00px" viewBox="0 0 1024 1024" version="1.1" xmlns="http://www.w3.org/2000/svg"><path d="M965.064748 424.996835h-5.746187a59.377266 59.377266 0 0 1-56.209496-41.328346 399.433669 399.433669 0 0 0-23.795108-57.314532 59.524604 59.524604 0 0 1 10.461007-69.101583l4.125468-4.125468a58.935252 58.935252 0 0 0 0-83.319712L854.561151 130.099568a58.935252 58.935252 0 0 0-83.319712 0l-4.125468 4.125468a59.524604 59.524604 0 0 1-69.101583 10.461007 399.433669 399.433669 0 0 0-57.314532-23.795108 59.377266 59.377266 0 0 1-41.328345-56.209496V58.935252a58.935252 58.935252 0 0 0-58.935252-58.935252h-56.504173a58.935252 58.935252 0 0 0-58.935251 58.935252v5.746187a59.377266 59.377266 0 0 1-41.328346 56.209496 399.433669 399.433669 0 0 0-57.314532 23.795108 59.524604 59.524604 0 0 1-69.101583-10.461007l-4.125468-4.125468a58.935252 58.935252 0 0 0-83.319712 0l-39.707626 39.707626a58.935252 58.935252 0 0 0 0 83.319712l4.125468 4.125468a59.524604 59.524604 0 0 1 10.461007 69.101583 399.433669 399.433669 0 0 0-23.795108 57.314532 59.377266 59.377266 0 0 1-56.209496 41.328346H58.935252a58.935252 58.935252 0 0 0-58.935252 58.935251v56.135828a58.935252 58.935252 0 0 0 58.935252 58.935251h5.746187a59.377266 59.377266 0 0 1 56.209496 41.328346 399.433669 399.433669 0 0 0 23.795108 57.314532 59.524604 59.524604 0 0 1-10.461007 69.101583l-4.125468 4.125468a58.935252 58.935252 0 0 0 0 83.319712l39.707626 39.707626a58.935252 58.935252 0 0 0 83.319712 0l4.125468-4.125468a59.524604 59.524604 0 0 1 69.101583-10.461007 399.433669 399.433669 0 0 0 57.314532 23.795108 59.377266 59.377266 0 0 1 41.328346 56.209496v5.746187a58.935252 58.935252 0 0 0 58.935251 58.935252h56.135828a58.935252 58.935252 0 0 0 58.935251-58.935252v-5.746187a59.377266 59.377266 0 0 1 41.328346-56.209496 399.433669 399.433669 0 0 0 57.314532-23.795108 59.524604 59.524604 0 0 1 69.101583 10.461007l4.125468 4.125468a58.935252 58.935252 0 0 0 83.319712 0l39.707626-39.707626a58.935252 58.935252 0 0 0 0-83.319712l-4.125468-4.125468a59.524604 59.524604 0 0 1-10.461007-69.101583 399.433669 399.433669 0 0 0 23.795108-57.314532 59.377266 59.377266 0 0 1 56.209496-41.328346h5.746187a58.935252 58.935252 0 0 0 58.935252-58.935251v-56.135828a58.935252 58.935252 0 0 0-58.935252-58.935251zM512 659.338129a147.338129 147.338129 0 1 1 147.338129-147.338129 147.338129 147.338129 0 0 1-147.338129 147.338129z" fill="#333333" /></svg>